<?xml version="1.0" standalone="no"?><!DOCTYPE svg PUBLIC "-//W3C//DTD SVG 1.1//EN" "http://www.w3.org/Graphics/SVG/1.1/DTD/svg11.dtd"><svg t="1733485582303" class="icon" viewBox="0 0 1245 1024" version="1.1" xmlns="http://www.w3.org/2000/svg" p-id="2536" xmlns:xlink="http://www.w3.org/1999/xlink" width="243.1640625" height="200"><path d="M257.024 877.568l-1.024-0.512-1.536-0.512c-23.04-10.752-51.2-23.04-69.12-49.152-9.216-12.8-8.704-38.912-9.728-60.928V152.576c-35.84 4.608-62.976 34.816-62.976 70.656v625.664c0 2.048 0.512 4.096 1.024 6.144 4.608 15.872 13.824 29.696 26.624 40.448 15.36 11.264 33.28 17.408 52.224 17.92 18.432 1.024 36.864 2.048 54.272 2.56 20.992 0.512 29.184-28.16 10.24-38.4z" fill="#333333" p-id="2537"></path><path d="M332.288 76.8c-2.56-0.512-5.12-1.536-7.68-2.048h-0.512c-17.92-4.608-35.84-8.704-53.76-11.776-5.12-1.024-10.24-1.024-15.36-0.512-35.328 5.12-61.44 35.328-61.44 70.656v609.792c0 20.992 6.656 41.472 18.944 57.856v0.512c16.384 19.968 37.376 35.84 60.928 46.08 37.376 20.992 56.32 31.744 74.752 39.936 67.584 29.696 137.216 55.296 178.176 69.632 9.728 3.584 19.968 4.096 29.696 1.024 30.72-8.704 52.224-36.864 52.224-68.608V537.6l0.512-216.064c0-7.168-1.536-14.848-4.608-21.504-6.144-13.312-14.848-26.624-21.504-38.912C524.8 152.064 414.72 100.864 332.288 76.8z m699.904 724.992c6.144-8.192 11.264-17.408 15.36-26.624 2.56-5.632 4.096-12.288 3.584-18.432V133.632c0-39.424-31.744-71.168-71.168-71.68-19.968 3.584-39.936 7.68-59.904 12.8h-0.512c-2.56 0.512-5.12 1.536-7.68 2.048-82.944 24.064-192.512 75.264-250.88 183.808-8.704 16.384-20.48 33.28-26.112 51.2l0.512 225.792v353.28c0 39.424 31.744 71.168 71.168 71.68 38.912-13.312 115.2-40.96 189.44-73.728 18.432-8.192 37.376-18.944 74.752-39.936 24.064-11.264 44.544-27.136 61.44-47.104z" fill="#333333" p-id="2538"></path><path d="M1069.568 152.576v613.888c-1.024 22.016-1.024 48.128-9.728 60.928-18.432 26.112-46.08 38.4-69.12 49.152l-1.536 0.512-1.024 0.512c-18.432 10.24-10.752 38.912 10.24 38.4 17.408-0.512 35.84-1.024 54.272-2.56 18.944-0.512 37.376-6.656 52.224-17.92 12.8-10.752 22.016-24.576 26.624-40.448 0.512-2.048 1.024-4.096 1.024-6.144V223.744c-0.512-36.352-27.136-66.56-62.976-71.168z" fill="#333333" p-id="2539"></path></svg>